HIERARCHY
ROOT root
{
	OFFSET 0.00 0.00 0.00
	CHANNELS 6 Xposition Yposition Zposition Zrotation Xrotation Yrotation
	JOINT lowerback
	{
		OFFSET 0 0 0
		CHANNELS 6 Xposition Yposition Zposition Zrotation Xrotation Yrotation
		JOINT upperback
		{
			OFFSET -0.214371 12.3768 -1.12219
			CHANNELS 6 Xposition Yposition Zposition Zrotation Xrotation Yrotation
			JOINT thorax
			{
				OFFSET -0.00137213 12.3873 0.296195
				CHANNELS 6 Xposition Yposition Zposition Zrotation Xrotation Yrotation
				JOINT lowerneck
				{
					OFFSET 0.0883157 12.5016 0.82912
					CHANNELS 6 Xposition Yposition Zposition Zrotation Xrotation Yrotation
					JOINT upperneck
					{
						OFFSET -1 10.1794 0.943522
						CHANNELS 6 Xposition Yposition Zposition Zrotation Xrotation Yrotation
						JOINT head
						{
							OFFSET 0.667525 10.2797 -1.57149
							CHANNELS 6 Xposition Yposition Zposition Zrotation Xrotation Yrotation
							End Site
							{
								OFFSET 0 0 0
							}
						}
					}
				}
				JOINT lclavicle
				{
					OFFSET 0.0883157 12.5016 0.82912
					CHANNELS 6 Xposition Yposition Zposition Zrotation Xrotation Yrotation
					JOINT lhumerus
					{
						OFFSET 20.61 4.45006 1.43784
						CHANNELS 6 Xposition Yposition Zposition Zrotation Xrotation Yrotation
						JOINT lradius
						{
							OFFSET 0 -30.3438 0
							CHANNELS 6 Xposition Yposition Zposition Zrotation Xrotation Yrotation
							JOINT lwrist
							{
								OFFSET 0 -18.964 0
								CHANNELS 6 Xposition Yposition Zposition Zrotation Xrotation Yrotation
								JOINT lhand
								{
									OFFSET 0 -9.48199 0
									CHANNELS 6 Xposition Yposition Zposition Zrotation Xrotation Yrotation
									JOINT lfingers
									{
										OFFSET 0 -3.17138 0
										CHANNELS 6 Xposition Yposition Zposition Zrotation Xrotation Yrotation
										End Site
										{
											OFFSET 0 -2.55685 0
										}
									}
								}
								JOINT lthumb
								{
									OFFSET 0 -9.48199 0
									CHANNELS 6 Xposition Yposition Zposition Zrotation Xrotation Yrotation
									End Site
									{
										OFFSET 0 -3.67114 0
									}
								}
							}
						}
					}
				}
				JOINT rclavicle
				{
					OFFSET 0.0883157 12.5016 0.82912
					CHANNELS 6 Xposition Yposition Zposition Zrotation Xrotation Yrotation
					JOINT rhumerus
					{
						OFFSET -20.61 4.45 1.44
						CHANNELS 6 Xposition Yposition Zposition Zrotation Xrotation Yrotation
						JOINT rradius
						{
							OFFSET 0 -29.5102 0
							CHANNELS 6 Xposition Yposition Zposition Zrotation Xrotation Yrotation
							JOINT rwrist
							{
								OFFSET 0 -19.2342 0
								CHANNELS 6 Xposition Yposition Zposition Zrotation Xrotation Yrotation
								JOINT rhand
								{
									OFFSET 0 -9.61712 0
									CHANNELS 6 Xposition Yposition Zposition Zrotation Xrotation Yrotation
									JOINT rfingers
									{
										OFFSET 0 -3.29215 0
										CHANNELS 6 Xposition Yposition Zposition Zrotation Xrotation Yrotation
										End Site
										{
											OFFSET 0 -2.557 0
										}
									}
								}
								JOINT rthumb
								{
									OFFSET 0 -9.61712 0
									CHANNELS 6 Xposition Yposition Zposition Zrotation Xrotation Yrotation
									End Site
									{
										OFFSET 0 -3.671 0
									}
								}
							}
						}
					}
				}
			}
		}
	}
	JOINT rfemur
	{
		OFFSET -8.46272 -9.62775 4.76248
		CHANNELS 6 Xposition Yposition Zposition Zrotation Xrotation Yrotation
		JOINT rtibia
		{
			OFFSET 1.00552e-005 -38.0331 0
			CHANNELS 6 Xposition Yposition Zposition Zrotation Xrotation Yrotation
			JOINT rfoot
			{
				OFFSET 1.14428e-005 -43.2815 0
				CHANNELS 6 Xposition Yposition Zposition Zrotation Xrotation Yrotation
				JOINT rtoes
				{
					OFFSET 0 -14.1868 -3.08763
					CHANNELS 6 Xposition Yposition Zposition Zrotation Xrotation Yrotation
					End Site
					{
						OFFSET 0 -7.27332 0
					}
				}
			}
		}
	}
	JOINT lfemur
	{
		OFFSET 9.10607 -9.62778 4.76249
		CHANNELS 6 Xposition Yposition Zposition Zrotation Xrotation Yrotation
		JOINT ltibia
		{
			OFFSET -1.01399e-005 -38.3535 0
			CHANNELS 6 Xposition Yposition Zposition Zrotation Xrotation Yrotation
			JOINT lfoot
			{
				OFFSET -1.12937e-005 -42.7176 0
				CHANNELS 6 Xposition Yposition Zposition Zrotation Xrotation Yrotation
				JOINT ltoes
				{
					OFFSET 0 -13.9965 -2.83857
					CHANNELS 6 Xposition Yposition Zposition Zrotation Xrotation Yrotation
					End Site
					{
						OFFSET 0 -7.16348 0
					}
				}
			}
		}
	}
}
MOTION
Frames: 4
Frame Time: 0.00833333
-0.444308	95.7952	97.089	-3.5234	-4.80114	-8.04698	0 0 0 0.537084	2.64825	-3.32708	-0.214371 12.3768 -1.12219 -3.53571	2.29426	-4.46968	-0.00137213 12.3873 0.296195 -3.91094	0.549247	-2.23443	0.0883157 12.5016 0.82912 4.49392	0.0807975	6.30847	-1 10.1794 0.943522 -3.81461	19.0385	8.53259	0.667525 10.2797 -1.57149 -1.08317	6.02983	3.98372	0.0883157 12.5016 0.82912 -15	0	-0	20.61 4.45006 1.43784 30.0143	-11.1811	-174.218	0 -30.3438 0 -0	58.777	-0	0 -18.964 0 -0	0	-88.269	0 -9.48199 0 1.22245	4.37968	-2.58917e-014	0 -3.17138 0 -0	7.12502	-0	0 -9.48199 0 25	15	-1.36605e-015	0.0883157 12.5016 0.82912 15	0	-0	-20.61 4.45 1.44 -17.6481	11.0635	171.593	0 -29.5102 0 -0	22.2051	-0	0 -19.2342 0 1.30878e-015	-4.0809e-015	125.563	0 -9.61712 0 1.22	4.38	-0	0 -3.29215 0 -0	7.12502	-0	0 -9.61712 0 25	15	-7.97034e-015	-8.46272 -9.62775 4.76248 3.48232	-27.6694	-2.66042	1.00552e-005 -38.0331 0 -0	62.7201	-0	1.14428e-005 -43.2815 0 -35.4378	-81.7471	-35.72	0 -14.1868 -3.08763 -0	-31.1163	-0	9.10607 -9.62778 4.76249 -0.743713	7.82858	13.4422	-1.01399e-005 -38.3535 0 -0	24.1897	-0	-1.12937e-005 -42.7176 0 15.368	-74.7861	15.8984	0 -13.9965 -2.83857 -0	-23.7788	-0
-0.408874	95.9764	97.7982	-3.50609	-4.62775	-7.71468	0 0 0 0.529955	2.57372	-3.48947	-0.214371 12.3768 -1.12219 -3.35227	2.2289	-4.68334	-0.00137213 12.3873 0.296195 -3.71641	0.525041	-2.34091	0.0883157 12.5016 0.82912 4.67991	-0.0788422	6.33677	-1 10.1794 0.943522 -4.02374	19.1187	8.59469	0.667525 10.2797 -1.57149 -1.16222	6.08729	4.01017	0.0883157 12.5016 0.82912 -15	0	-0	20.61 4.45006 1.43784 29.9788	-11.6508	-175.162	0 -30.3438 0 -0	58.928	-0	0 -18.964 0 -0	0	-88.3221	0 -9.48199 0 1.22245	4.37968	-2.58917e-014	0 -3.17138 0 -0	7.12502	-0	0 -9.48199 0 25	15	-1.36605e-015	0.0883157 12.5016 0.82912 15	0	-0	-20.61 4.45 1.44 -18.0023	11.4267	170.706	0 -29.5102 0 -0	21.8319	-0	0 -19.2342 0 1.32507e-015	-4.10358e-015	125.791	0 -9.61712 0 1.22	4.38	-0	0 -3.29215 0 -0	7.12502	-0	0 -9.61712 0 25	15	-7.97034e-015	-8.46272 -9.62775 4.76248 3.7892	-28.2762	-2.71383	1.00552e-005 -38.0331 0 -0	60.673	-0	1.14428e-005 -43.2815 0 -35.943	-81.9347	-36.2141	0 -14.1868 -3.08763 -0	-30.9946	-0	9.10607 -9.62778 4.76249 -0.940513	8.71499	13.1348	-1.01399e-005 -38.3535 0 -0	22.9575	-0	-1.12937e-005 -42.7176 0 14.9361	-74.258	15.4906	0 -13.9965 -2.83857 -0	-23.9698	-0
-0.376157	96.1401	98.5117	-3.4697	-4.45173	-7.38899	0 0 0 0.507252	2.46611	-3.63334	-0.214371 12.3768 -1.12219 -3.16681	2.1893	-4.87178	-0.00137213 12.3873 0.296195 -3.51611	0.550225	-2.43423	0.0883157 12.5016 0.82912 4.84484	-0.158106	6.34741	-1 10.1794 0.943522 -4.21594	19.1135	8.63123	0.667525 10.2797 -1.57149 -1.24131	6.10811	4.02667	0.0883157 12.5016 0.82912 -15	0	-0	20.61 4.45006 1.43784 29.9422	-12.174	-176.134	0 -30.3438 0 -0	59.0713	-0	0 -18.964 0 -0	0	-88.4289	0 -9.48199 0 1.22245	4.37968	-2.58917e-014	0 -3.17138 0 -0	7.12502	-0	0 -9.48199 0 25	15	-1.36605e-015	0.0883157 12.5016 0.82912 15	0	-0	-20.61 4.45 1.44 -18.3676	11.7661	169.902	0 -29.5102 0 -0	21.5187	-0	0 -19.2342 0 1.33612e-015	-4.11887e-015	125.945	0 -9.61712 0 1.22	4.38	-0	0 -3.29215 0 -0	7.12502	-0	0 -9.61712 0 25	15	-7.97034e-015	-8.46272 -9.62775 4.76248 4.06522	-28.8324	-2.71318	1.00552e-005 -38.0331 0 -0	58.5627	-0	1.14428e-005 -43.2815 0 -36.2884	-82.1162	-36.5484	0 -14.1868 -3.08763 -0	-30.8417	-0	9.10607 -9.62778 4.76249 -1.17132	9.67437	12.8442	-1.01399e-005 -38.3535 0 -0	21.585	-0	-1.12937e-005 -42.7176 0 14.6793	-73.673	15.2678	0 -13.9965 -2.83857 -0	-24.1877	-0
-0.342999	96.2835	99.2254	-3.41261	-4.27281	-7.06997	0 0 0 0.467276	2.33162	-3.75992	-0.214371 12.3768 -1.12219 -2.98048	2.17293	-5.03689	-0.00137213 12.3873 0.296195 -3.31005	0.618339	-2.51559	0.0883157 12.5016 0.82912 4.98862	-0.159783	6.34145	-1 10.1794 0.943522 -4.39165	19.0279	8.64399	0.667525 10.2797 -1.57149 -1.31999	6.09285	4.03401	0.0883157 12.5016 0.82912 -15	0	-0	20.61 4.45006 1.43784 29.9019	-12.7408	-177.127	0 -30.3438 0 -0	59.2241	-0	0 -18.964 0 -0	0	-88.5786	0 -9.48199 0 1.22245	4.37968	-2.58917e-014	0 -3.17138 0 -0	7.12502	-0	0 -9.48199 0 25	15	-1.36605e-015	0.0883157 12.5016 0.82912 15	0	-0	-20.61 4.45 1.44 -18.7409	12.0858	169.189	0 -29.5102 0 -0	21.2683	-0	0 -19.2342 0 1.3418e-015	-4.1267e-015	126.024	0 -9.61712 0 1.22	4.38	-0	0 -3.29215 0 -0	7.12502	-0	0 -9.61712 0 25	15	-7.97034e-015	-8.46272 -9.62775 4.76248 4.31172	-29.3461	-2.63977	1.00552e-005 -38.0331 0 -0	56.4078	-0	1.14428e-005 -43.2815 0 -36.6261	-82.2858	-36.8758	0 -14.1868 -3.08763 -0	-30.6618	-0	9.10607 -9.62778 4.76249 -1.43949	10.7146	12.5771	-1.01399e-005 -38.3535 0 -0	20.0547	-0	-1.12937e-005 -42.7176 0 14.5753	-73.0274	15.2089	0 -13.9965 -2.83857 -0	-24.4433	-0
